<svg width="100" height="91" fill="none" xmlns="http://www.w3.org/2000/svg"><rect width="99.68" height="90.002" rx="22" fill="#60DAFF"/><g clip-path="url(#clip0_2_79)" fill="#fff"><path d="M50 40.215c4.685 0 8.496-3.812 8.496-8.496 0-4.685-3.811-8.496-8.496-8.496-4.685 0-8.496 3.811-8.496 8.496 0 4.684 3.811 8.496 8.496 8.496zm0-14.063a5.573 5.573 0 015.566 5.567A5.573 5.573 0 0150 37.285a5.573 5.573 0 01-5.566-5.566A5.573 5.573 0 0150 26.152zm17.188 14.063a5.377 5.377 0 005.37-5.371 5.377 5.377 0 00-5.37-5.371 5.377 5.377 0 00-5.372 5.37 5.377 5.377 0 005.371 5.372zm0-7.813a2.444 2.444 0 012.44 2.442 2.444 2.444 0 01-2.44 2.441 2.444 2.444 0 01-2.442-2.441 2.444 2.444 0 012.442-2.442zm1.182 11.133h-2.267a6.64 6.64 0 00-6.024 3.843 11.79 11.79 0 00-8.714-3.843h-2.73a11.79 11.79 0 00-8.714 3.843 6.641 6.641 0 00-6.024-3.843H31.63c-3.656 0-6.631 2.957-6.631 6.591v10.665a2.87 2.87 0 002.872 2.861h8.958a3.424 3.424 0 003.407 3.125h19.527a3.424 3.424 0 003.406-3.125h8.855a2.972 2.972 0 002.975-2.962V50.126c0-3.634-2.975-6.59-6.63-6.59zm-40.44 6.591c0-2.019 1.66-3.661 3.7-3.661h2.267c2.04 0 3.7 1.642 3.7 3.661v1.003c-.984 2.565-.78 4.102-.78 9.594H27.93V50.126zm32.324 13.231c0 .27-.22.49-.49.49H40.236a.49.49 0 01-.49-.49v-8.003c0-4.902 3.988-8.89 8.889-8.89h2.73c4.901 0 8.889 3.988 8.889 8.89v8.003zM72.07 60.69c0 .05.546.033-8.886.033 0-5.533.202-7.033-.782-9.594v-1.003c0-2.019 1.66-3.661 3.701-3.661h2.266c2.041 0 3.701 1.642 3.701 3.661V60.69zM32.813 40.215a5.377 5.377 0 005.37-5.371 5.377 5.377 0 00-5.37-5.371 5.377 5.377 0 00-5.372 5.37 5.377 5.377 0 005.372 5.372zm0-7.813a2.444 2.444 0 012.44 2.442 2.444 2.444 0 01-2.44 2.441 2.444 2.444 0 01-2.442-2.441 2.444 2.444 0 012.442-2.442z"/></g><defs><clipPath id="clip0_2_79"><path fill="#fff" transform="translate(25 20)" d="M0 0h50v50H0z"/></clipPath></defs></svg>