<svg width="50" height="51" fill="none" xmlns="http://www.w3.org/2000/svg"><g clip-path="url(#clip0_2_130)" fill="#3D3D3F"><path d="M45.605.223H4.395A4.4 4.4 0 000 4.617v41.016a4.4 4.4 0 004.395 4.394h41.21A4.4 4.4 0 0050 45.633V4.617A4.4 4.4 0 0045.605.223zm-41.21 2.93h41.21c.808 0 1.465.656 1.465 1.464v7.324H2.93V4.617c0-.808.657-1.465 1.465-1.465zm41.21 43.944H4.395a1.466 1.466 0 01-1.465-1.464V14.87h44.14v30.762c0 .807-.657 1.464-1.465 1.464z"/><path d="M29.972 19.384a1.465 1.465 0 00-1.924.77L19.26 40.66a1.465 1.465 0 002.693 1.154l8.789-20.508a1.465 1.465 0 00-.77-1.923zM17.355 24.21a1.465 1.465 0 00-2.06-.229l-7.323 5.86a1.465 1.465 0 000 2.287l7.324 5.86a1.465 1.465 0 101.83-2.288l-5.895-4.716 5.895-4.715a1.465 1.465 0 00.229-2.06zm24.674 5.63l-7.325-5.859a1.465 1.465 0 10-1.83 2.288l5.895 4.715-5.895 4.716a1.465 1.465 0 101.83 2.287l7.325-5.859a1.465 1.465 0 000-2.288zM7.422 9.012a1.465 1.465 0 100-2.93 1.465 1.465 0 000 2.93zm5.859 0a1.465 1.465 0 100-2.93 1.465 1.465 0 000 2.93zm5.859 0a1.465 1.465 0 100-2.93 1.465 1.465 0 000 2.93zm14.65 0h8.788a1.465 1.465 0 000-2.93H33.79a1.465 1.465 0 000 2.93z"/></g><defs><clipPath id="clip0_2_130"><path fill="#3D3D3F" transform="translate(0 .125)" d="M0 0h50v50H0z"/></clipPath></defs></svg>