<svg width="100" height="90" fill="none" xmlns="http://www.w3.org/2000/svg"><rect width="99.677" height="90" rx="15" fill="#79E28A"/><g clip-path="url(#clip0_2_70)" fill="#fff"><path d="M49.035 13.972c-6.698 6.71-10.445 16.1-10.28 25.765v3.377h-3.592l-3.804 6.797v8.448h7.778l1.849 5.328h2.293v5.609h2.65v-5.609h2.712v11.878h2.65V63.687h2.712v5.609h2.65v-5.609h2.293l1.849-5.328h7.778v-8.447l-3.795-6.797h-3.6v-3.378c.084-4.6-.759-9.326-2.438-13.666-3.188-8.243-8.225-12.384-8.768-13.039l-.938.94zm-15.027 36.63l2.709-4.838h2.038v9.946h-4.747v-5.108zm23.053 10.436H42.87l-.93-2.679h16.05l-.93 2.679zm6.162-15.273l2.7 4.837v5.108h-4.746v-9.945h2.046zM58.528 39.7v16.009H41.404V39.703c-.147-8.493 2.962-16.752 8.568-22.878 5.61 6.13 8.715 14.388 8.556 22.876z"/><path d="M56.007 37.106c0-3.334-2.71-6.046-6.04-6.046-1.61 0-3.126.629-4.267 1.77a6.029 6.029 0 00-.002 8.54 6.001 6.001 0 004.27 1.77c3.298 0 6.039-2.686 6.039-6.034zm-8.434-2.402a3.365 3.365 0 012.394-.994c1.87 0 3.39 1.523 3.39 3.396 0 .897-.353 1.744-.994 2.386a3.377 3.377 0 01-4.792.003c-.64-.64-1.31-3.48.002-4.791z"/></g><defs><clipPath id="clip0_2_70"><path fill="#fff" transform="rotate(-45 63.32 .773)" d="M0 0h45.212v45.212H0z"/></clipPath></defs></svg>