<svg width="100" height="91" fill="none" xmlns="http://www.w3.org/2000/svg"><rect width="99.68" height="90.002" rx="22" fill="#F37168"/><path d="M54.754 56.215a3.13 3.13 0 00-2.873-4.355H47.4l1.493-2.511c.439-.74.55-1.635.306-2.46a3.101 3.101 0 00-1.597-1.894 3.107 3.107 0 00-2.764.015 23.33 23.33 0 00-6.602 5.006.976.976 0 00-.852-.5H28.79a.977.977 0 00-.976.976v5.371a.977.977 0 001.953 0V51.47h6.64v17.578h-6.64v-4.395a.977.977 0 00-1.953 0v5.371c0 .54.437.977.976.977h8.594c.54 0 .977-.437.977-.977v-.035A7.834 7.834 0 0042.19 71h9.013a3.127 3.127 0 002.895-4.294h.061a3.13 3.13 0 003.126-3.125c0-.832-.327-1.589-.86-2.15.533-.56.86-1.316.86-2.148a3.13 3.13 0 00-2.531-3.068zm-.595 8.538h-6.372a.977.977 0 000 1.953h3.416a1.172 1.172 0 010 2.34H42.19a5.883 5.883 0 01-3.828-1.432V52.91l.066-.087a21.349 21.349 0 017.293-6.07 1.144 1.144 0 011.018-.005c.289.142.497.39.589.698.091.308.05.63-.113.906l-2.37 3.986a.976.976 0 00.84 1.475h6.196a1.174 1.174 0 010 2.345h-4.094a.977.977 0 000 1.953h6.372a1.174 1.174 0 010 2.345h-6.372a.977.977 0 000 1.953h6.372a1.174 1.174 0 010 2.345zm5.595-31.669l-4.19-.61-1.873-3.796a.977.977 0 00-1.752 0l-1.874 3.797-4.19.609a.977.977 0 00-.541 1.665l3.032 2.956-.716 4.173a.976.976 0 001.417 1.03l3.748-1.971 3.748 1.97a.975.975 0 001.028-.074.977.977 0 00.389-.955l-.716-4.173 3.032-2.956a.976.976 0 00-.542-1.665zm-4.221 3.58a.977.977 0 00-.281.865l.468 2.729-2.45-1.289a.976.976 0 00-.91 0l-2.45 1.289.468-2.73a.977.977 0 00-.28-.864l-1.983-1.932 2.74-.398a.977.977 0 00.735-.534l1.225-2.483L54.04 33.8a.977.977 0 00.736.534l2.74.398-1.983 1.932zm18.604-1.249a.977.977 0 00-.788-.664l-3.21-.467-1.436-2.909a.977.977 0 00-1.751 0l-1.436 2.91-3.21.466a.977.977 0 00-.541 1.666l2.323 2.264-.549 3.197a.976.976 0 001.417 1.03l2.872-1.51 2.87 1.51a.975.975 0 001.418-1.03l-.549-3.197 2.323-2.264a.977.977 0 00.247-1.002zm-4.3 2.225a.977.977 0 00-.282.865l.301 1.753-1.574-.828a.976.976 0 00-.909 0l-1.574.828.3-1.753a.977.977 0 00-.28-.865l-1.274-1.24 1.76-.256a.977.977 0 00.735-.534l.788-1.595.787 1.595a.977.977 0 00.735.534l1.76.256-1.274 1.241zm-35.775 1.04l-.549 3.198a.976.976 0 001.417 1.03l2.872-1.51 2.87 1.51a.976.976 0 001.418-1.03l-.549-3.197 2.323-2.264a.977.977 0 00-.541-1.666l-3.21-.467-1.436-2.909a.977.977 0 00-1.751 0l-1.436 2.91-3.21.466a.977.977 0 00-.541 1.666l2.323 2.264zm2.217-2.537a.977.977 0 00.735-.534l.788-1.595.787 1.595a.977.977 0 00.735.534l1.76.256-1.274 1.241a.977.977 0 00-.28.865l.3 1.753-1.574-.828a.976.976 0 00-.909 0l-1.574.828.3-1.753a.977.977 0 00-.28-.865l-1.274-1.24 1.76-.256zm16.526-10.307a.977.977 0 00.976-.977v-2.882a.977.977 0 00-1.953 0v2.882c0 .54.438.977.977.977zm-7.204 2.104a.974.974 0 001.381 0 .977.977 0 000-1.38l-1.691-1.692a.977.977 0 00-1.382 1.381l1.692 1.692zm13.738.287c.25 0 .5-.096.69-.286l1.692-1.692a.977.977 0 00-1.381-1.381l-1.692 1.692a.977.977 0 00.69 1.667z" fill="#fff"/><path d="M29.482 60.948a.984.984 0 00.286-.69.984.984 0 00-.286-.69.986.986 0 00-.69-.287.988.988 0 00-.692.286.983.983 0 00-.285.69c0 .258.104.51.285.691a.986.986 0 00.691.286.984.984 0 00.69-.286z" fill="#fff"/></svg>