<svg width="46" height="47" fill="none" xmlns="http://www.w3.org/2000/svg"><g clip-path="url(#clip0_2_149)" fill="#3D3D3F" stroke="#3D3D3F" stroke-width=".2"><path d="M18.066 3.705H7.276A3.7 3.7 0 003.58 7.4v10.79a3.7 3.7 0 003.696 3.696h10.79a3.7 3.7 0 003.696-3.697V7.401a3.7 3.7 0 00-3.697-3.696zm1.698 14.485a1.7 1.7 0 01-1.698 1.699H7.276a1.7 1.7 0 01-1.698-1.699V7.401a1.7 1.7 0 011.698-1.698h10.79a1.7 1.7 0 011.698 1.698v10.79zM39.225 3.705H28.436A3.7 3.7 0 0024.74 7.4v10.79a3.7 3.7 0 003.696 3.696h10.79a3.7 3.7 0 003.696-3.697V7.401a3.7 3.7 0 00-3.697-3.696zm1.699 14.485a1.7 1.7 0 01-1.699 1.699H28.436a1.7 1.7 0 01-1.698-1.699V7.401a1.7 1.7 0 011.698-1.698h10.79a1.7 1.7 0 011.698 1.698v10.79zm-22.858 7.093H7.276A3.7 3.7 0 003.58 28.98v10.789a3.7 3.7 0 003.696 3.696h10.79a3.7 3.7 0 003.696-3.696v-10.79a3.7 3.7 0 00-3.697-3.696zm1.698 14.486a1.7 1.7 0 01-1.698 1.698H7.276a1.7 1.7 0 01-1.698-1.698v-10.79a1.7 1.7 0 011.698-1.698h10.79a1.7 1.7 0 011.698 1.699v10.789zm19.461-14.486H28.436a3.7 3.7 0 00-3.696 3.697v10.789a3.7 3.7 0 003.696 3.696h10.79a3.7 3.7 0 003.696-3.696v-10.79a3.7 3.7 0 00-3.697-3.696zm1.699 14.486a1.7 1.7 0 01-1.699 1.698H28.436a1.7 1.7 0 01-1.698-1.698v-10.79a1.7 1.7 0 011.698-1.698h10.79a1.7 1.7 0 011.698 1.699v10.789z"/></g><defs><clipPath id="clip0_2_149"><rect x="3.68" y="3.805" width="39.56" height="39.56" rx="3" fill="#fff"/></clipPath></defs></svg>