<svg width="50" height="51" fill="none" xmlns="http://www.w3.org/2000/svg"><g clip-path="url(#clip0_2_116)" fill="#3D3D3F"><path d="M43.67 6.627h-.594a4.27 4.27 0 00-1.102-5.66 4.272 4.272 0 00-6.099 1.056l-3.08 4.604H6.33a3.95 3.95 0 00-3.945 3.945v25.222a3.95 3.95 0 003.945 3.945h15.324l-1.158 4.863h-2.499a2.957 2.957 0 00-2.954 2.953v.617h-3.08a.977.977 0 100 1.953h26.074a.977.977 0 000-1.953h-3.08v-.617a2.957 2.957 0 00-2.955-2.953h-2.498l-1.158-4.863h15.323a3.95 3.95 0 003.945-3.945V10.572a3.95 3.95 0 00-3.945-3.945zM29.676 23.795c-1.527 1.068-4.387-.384-7.119 1.073-.666-3.462-.246-6.718 3.223-7.437a6.213 6.213 0 011.342-.128l3.533 2.621c.512 1.491.32 2.961-.979 3.87zm.984-10.468l2.764 2.051L31.3 17.97l-2.503-1.857 1.864-2.786zM37.498 3.11a2.32 2.32 0 013.313-.574 2.32 2.32 0 01.411 3.336l-6.557 7.994-2.917-2.164 5.75-8.592zm-4.495 44.445v.617H16.997v-.617a1 1 0 011-1h14.005a1 1 0 011 1zm-5.507-2.953h-4.992l1.157-4.863h2.677l1.158 4.863zm18.165-8.808a1.994 1.994 0 01-1.992 1.992H6.33a1.994 1.994 0 01-1.991-1.992V31.22h2.79a.977.977 0 000-1.954H4.34V10.572c0-1.098.893-1.992 1.991-1.992h25.158l-4.53 6.769c-1.914.017-3.824.684-5.075 2.144-1.702 1.987-2.001 5.109-.889 9.279a.977.977 0 001.619.454c2.524-2.413 5.67.219 8.486-2.06 1.719-1.392 2.126-3.604 1.477-5.673l8.95-10.913h2.142c1.098 0 1.992.894 1.992 1.992v18.695H14.94a.977.977 0 000 1.953h30.72v4.574z"/><path d="M10.846 29.286a.975.975 0 10.38 1.914.975.975 0 00-.38-1.914z"/></g><defs><clipPath id="clip0_2_116"><path fill="#fff" transform="translate(0 .125)" d="M0 0h50v50H0z"/></clipPath></defs></svg>