<svg width="42" height="47" fill="none" xmlns="http://www.w3.org/2000/svg"><g opacity=".95"><path d="M20.797 31.415a7.75 7.75 0 01-3.642-.894 8.094 8.094 0 01-2.854-2.52L9.1 31.11c.198.237.432.439.693.597l9.258 5.55a3.72 3.72 0 001.747.438 3.72 3.72 0 001.748-.438l9.257-5.55c.261-.158.496-.36.694-.597l-5.19-3.164a8.101 8.101 0 01-2.85 2.553 7.753 7.753 0 01-3.659.916z" fill="url(#paint0_linear_2_59)"/><path d="M12.653 23.039c.005-1.974.772-3.876 2.154-5.344 1.383-1.468 3.284-2.399 5.341-2.614V9.099c-.312.062-.612.17-.89.318l-9.65 5.306c-.525.334-.961.78-1.275 1.303a3.768 3.768 0 00-.533 1.707v10.611c.004.306.056.61.153.902l5.423-2.984a7.646 7.646 0 01-.723-3.223z" fill="url(#paint1_linear_2_59)"/><path d="M32.082 14.719l-9.143-5.302a2.925 2.925 0 00-.843-.318v5.964a7.952 7.952 0 013.48 1.265 8.01 8.01 0 012.538 2.706 8.067 8.067 0 01.398 7.23l5.138 2.982c.092-.292.14-.595.145-.901V17.74a3.915 3.915 0 00-.503-1.714 3.887 3.887 0 00-1.21-1.308z" fill="url(#paint2_linear_2_59)"/><path d="M38.742 9.405L23.65.676a6.354 6.354 0 00-5.704 0L2.852 9.405A6.308 6.308 0 000 14.336v17.458a6.33 6.33 0 002.852 4.945l15.093 8.729a6.354 6.354 0 005.704 0l15.093-8.73a6.323 6.323 0 002.852-4.944V14.336a6.317 6.317 0 00-2.852-4.931zm-1.938 20.38a4.88 4.88 0 01-2.197 3.798l-11.627 6.72a4.854 4.854 0 01-4.38 0l-11.613-6.72a4.874 4.874 0 01-2.197-3.797V16.358a4.88 4.88 0 012.197-3.798l11.6-6.72a4.854 4.854 0 014.38 0l11.627 6.72a4.875 4.875 0 012.21 3.798v13.428z" fill="url(#paint3_linear_2_59)"/><path d="M14.947 23.072c0 1.092.343 2.16.985 3.069a5.79 5.79 0 002.626 2.035 6.17 6.17 0 003.38.314 5.962 5.962 0 002.994-1.512 5.436 5.436 0 001.6-2.828 5.24 5.24 0 00-.332-3.192 5.605 5.605 0 00-2.154-2.48 6.097 6.097 0 00-3.25-.93c-1.551 0-3.04.582-4.136 1.618-1.097 1.036-1.713 2.44-1.713 3.906z" fill="url(#paint4_linear_2_59)"/></g><defs><linearGradient id="paint0_linear_2_59" x1="23.344" y1="39.382" x2="23.624" y2="25.602" gradientUnits="userSpaceOnUse"><stop stop-color="#F35F2F"/><stop offset="1" stop-color="#F35F2F" stop-opacity=".75"/></linearGradient><linearGradient id="paint1_linear_2_59" x1="15.318" y1="32.733" x2="17.566" y2="4.422" gradientUnits="userSpaceOnUse"><stop stop-color="#F35F2F"/><stop offset="1" stop-color="#F35F2F" stop-opacity=".75"/></linearGradient><linearGradient id="paint2_linear_2_59" x1="29.219" y1="32.733" x2="31.59" y2="4.443" gradientUnits="userSpaceOnUse"><stop stop-color="#F35F2F"/><stop offset="1" stop-color="#F35F2F" stop-opacity=".75"/></linearGradient><linearGradient id="paint3_linear_2_59" x1="25.326" y1="54.13" x2="28.838" y2="-10.93" gradientUnits="userSpaceOnUse"><stop stop-color="#F35F2F"/><stop offset="1" stop-color="#F35F2F" stop-opacity=".75"/></linearGradient><linearGradient id="paint4_linear_2_59" x1="22.07" y1="30.508" x2="22.786" y2="14.918" gradientUnits="userSpaceOnUse"><stop stop-color="#F35F2F"/><stop offset="1" stop-color="#F35F2F" stop-opacity=".75"/></linearGradient></defs></svg>